<?xml version="1.0" encoding="UTF-8"?>
<!DOCTYPE svg PUBLIC "-//W3C//DTD SVG 1.1//EN" "http://www.w3.org/Graphics/SVG/1.1/DTD/svg11.dtd">
<svg xmlns="http://www.w3.org/2000/svg" version="1.1" width="56" height="56" viewBox="0 0 56 56">
  <path d="M0 8C0 3.58172 3.58172 0 8 0H48C52.4183 0 56 3.58172 56 8V48C56 52.4183 52.4183 56 48 56H8C3.58172 56 0 52.4183 0 48V8Z" fill="#f6e7ff"/>
  <path d="M24.875 16.125C24.875 15.2962 25.2042 14.5013 25.7903 13.9153C26.3763 13.3292 27.1712 13 28 13C28.8288 13 29.6236 13.3292 30.2097 13.9153C30.7957 14.5013 31.125 15.2962 31.125 16.125C31.125 16.9538 30.7957 17.7487 30.2097 18.3347C29.6236 18.9208 28.8288 19.25 28 19.25C27.1712 19.25 26.3763 18.9208 25.7903 18.3347C25.2042 17.7487 24.875 16.9538 24.875 16.125ZM28 10.5C27.1516 10.5 26.3142 10.6919 25.5505 11.0614C24.7868 11.4308 24.1166 11.9682 23.59 12.6333C23.0634 13.2984 22.694 14.0741 22.5096 14.9021C22.3252 15.7302 22.3304 16.5893 22.525 17.415L18.495 15.79C17.5172 15.3962 16.4234 15.4043 15.4516 15.8125C14.4797 16.2207 13.7083 16.9961 13.305 17.97C13.1053 18.4523 13.0033 18.9694 13.0047 19.4914C13.0061 20.0134 13.111 20.5299 13.3132 21.0111C13.5155 21.4923 13.8111 21.9286 14.183 22.2949C14.5549 22.6612 14.9957 22.9501 15.48 23.145L20.5 25.1725V31.1325L15.9675 39.6575C15.7221 40.1188 15.5699 40.6239 15.5197 41.1439C15.4695 41.664 15.5222 42.1889 15.6749 42.6886C15.8275 43.1883 16.0771 43.653 16.4093 44.0562C16.7415 44.4595 17.15 44.7933 17.6112 45.0388C18.5428 45.5344 19.6331 45.6396 20.6423 45.3314C21.6515 45.0231 22.4968 44.3266 22.9925 43.395L28 33.975L33.01 43.395C33.5053 44.3266 34.3503 45.0232 35.3593 45.3317C36.3682 45.6402 37.4584 45.5353 38.39 45.04C39.3215 44.5447 40.0182 43.6996 40.3267 42.6907C40.6352 41.6817 40.5303 40.5916 40.035 39.66L35.5 31.13V25.1725L40.52 23.145C41.0042 22.9501 41.445 22.6612 41.8169 22.2949C42.1888 21.9286 42.4844 21.4923 42.6867 21.0111C42.8889 20.5299 42.9938 20.0134 42.9952 19.4914C42.9966 18.9694 42.8946 18.4523 42.695 17.97C42.2921 16.9956 41.5209 16.2197 40.549 15.811C39.5771 15.4023 38.4831 15.3938 37.505 15.7875L33.4775 17.415C33.6721 16.589 33.6773 15.7298 33.4927 14.9015C33.3081 14.0733 32.9386 13.2975 32.4117 12.6323C31.8848 11.9671 31.2142 11.4298 30.4502 11.0605C29.6862 10.6913 28.8485 10.4996 28 10.5ZM15.6175 18.9225C15.7687 18.5588 16.057 18.2692 16.42 18.1163C16.783 17.9633 17.1915 17.9593 17.5575 18.105L26.1275 21.5675C27.3287 22.0527 28.6713 22.0527 29.8725 21.5675L38.4425 18.105C38.8084 17.9593 39.217 17.9633 39.58 18.1163C39.943 18.2692 40.2312 18.5588 40.3825 18.9225C40.4565 19.0999 40.4946 19.2903 40.4944 19.4826C40.4942 19.6749 40.4557 19.8652 40.3813 20.0425C40.3068 20.2198 40.1979 20.3805 40.0607 20.5152C39.9236 20.65 39.761 20.7561 39.5825 20.8275L34.5625 22.8525C34.1 23.0396 33.7041 23.3607 33.4257 23.7746C33.1472 24.1885 32.999 24.6762 33 25.175V31.1325C32.9997 31.5422 33.1002 31.9457 33.2925 32.3075L37.8275 40.835C37.9914 41.179 38.0164 41.573 37.8971 41.935C37.7778 42.297 37.5235 42.5989 37.1872 42.7781C36.8508 42.9572 36.4583 42.9997 36.0914 42.8967C35.7244 42.7937 35.4114 42.5531 35.2175 42.225L30.2075 32.8C29.9945 32.3994 29.6766 32.0643 29.2877 31.8306C28.8988 31.5969 28.4537 31.4734 28 31.4734C27.5463 31.4734 27.1011 31.5969 26.7123 31.8306C26.3234 32.0643 26.0054 32.3994 25.7925 32.8L20.785 42.2175C20.6939 42.3889 20.5699 42.5406 20.4201 42.6641C20.2704 42.7876 20.0978 42.8803 19.9122 42.9371C19.7266 42.9938 19.5316 43.0135 19.3384 42.9949C19.1452 42.9763 18.9576 42.9199 18.7862 42.8288C18.6148 42.7376 18.4631 42.6137 18.3396 42.4639C18.2162 42.3142 18.1234 42.1416 18.0666 41.956C18.0099 41.7704 17.9902 41.5754 18.0088 41.3822C18.0274 41.189 18.0839 41.0014 18.175 40.83L22.7075 32.305C22.8994 31.944 22.9998 31.5414 23 31.1325V25.1725C23 24.6745 22.8512 24.1879 22.5728 23.775C22.2945 23.3621 21.8991 23.0417 21.4375 22.855L16.4175 20.825C16.2389 20.7536 16.0764 20.6475 15.9392 20.5127C15.8021 20.378 15.6931 20.2173 15.6187 20.04C15.5442 19.8627 15.5058 19.6724 15.5056 19.4801C15.5054 19.2878 15.5434 19.0999 15.6175 18.9225Z" fill="#a729f5"/>
</svg>
