<?xml version="1.0" encoding="UTF-8"?>
<!DOCTYPE svg PUBLIC "-//W3C//DTD SVG 1.1//EN" "http://www.w3.org/Graphics/SVG/1.1/DTD/svg11.dtd">
<svg xmlns="http://www.w3.org/2000/svg" version="1.1" width="56" height="56" viewBox="0 0 56 56">
  <path d="M0 8C0 3.58172 3.58172 0 8 0H48C52.4183 0 56 3.58172 56 8V48C56 52.4183 52.4183 56 48 56H8C3.58172 56 0 52.4183 0 48V8Z" fill="#fff5ed"/>
  <path d="M32.5075 15.6075C32.6575 15.6741 32.793 15.7697 32.9061 15.8887C33.0192 16.0076 33.1078 16.1478 33.1668 16.301C33.2257 16.4542 33.2539 16.6175 33.2498 16.7817C33.2456 16.9458 33.2091 17.1075 33.1425 17.2575L23.1425 39.7575C23.0079 40.0605 22.7584 40.2976 22.449 40.4167C22.1395 40.5358 21.7955 40.5271 21.4925 40.3925C21.1895 40.2579 20.9523 40.0085 20.8332 39.699C20.7142 39.3896 20.7229 39.0455 20.8575 38.7425L30.8575 16.2425C30.9241 16.0925 31.0196 15.957 31.1386 15.8439C31.2576 15.7308 31.3977 15.6422 31.5509 15.5832C31.7042 15.5243 31.8675 15.4961 32.0316 15.5002C32.1957 15.5044 32.3574 15.5408 32.5075 15.6075ZM18.8325 21.44C18.9549 21.5493 19.0547 21.6817 19.126 21.8296C19.1973 21.9774 19.2387 22.1379 19.248 22.3018C19.2573 22.4657 19.2342 22.6298 19.1801 22.7848C19.1259 22.9398 19.0418 23.0826 18.9325 23.205L14.675 28L18.9375 32.795C19.0465 32.9178 19.1302 33.0608 19.1839 33.216C19.2376 33.3711 19.2603 33.5354 19.2505 33.6993C19.2408 33.8631 19.1988 34.0235 19.1271 34.1712C19.0554 34.3189 18.9553 34.451 18.8325 34.56C18.7097 34.669 18.5666 34.7528 18.4115 34.8065C18.2563 34.8602 18.0921 34.8828 17.9282 34.8731C17.7643 34.8633 17.604 34.8214 17.4563 34.7496C17.3086 34.6779 17.1765 34.5778 17.0675 34.455L12.0675 28.83C11.8643 28.6013 11.7521 28.3059 11.7521 28C11.7521 27.6941 11.8643 27.3988 12.0675 27.17L17.0675 21.545C17.1764 21.4222 17.3086 21.3221 17.4562 21.2503C17.6039 21.1786 17.7643 21.1366 17.9282 21.1269C18.0921 21.1171 18.2563 21.1397 18.4115 21.1935C18.5667 21.2472 18.7097 21.331 18.8325 21.44ZM37.17 21.44C37.2927 21.331 37.4358 21.2472 37.5909 21.1935C37.7461 21.1397 37.9103 21.1171 38.0742 21.1269C38.2381 21.1366 38.3985 21.1786 38.5462 21.2503C38.6939 21.3221 38.826 21.4222 38.935 21.545L43.935 27.17C44.1381 27.3988 44.2503 27.6941 44.2503 28C44.2503 28.3059 44.1381 28.6013 43.935 28.83L38.935 34.455C38.826 34.5778 38.6939 34.6779 38.5462 34.7496C38.3985 34.8214 38.2381 34.8633 38.0742 34.8731C37.9103 34.8828 37.7461 34.8602 37.591 34.8065C37.4358 34.7528 37.2928 34.669 37.17 34.56C37.0472 34.451 36.9471 34.3189 36.8753 34.1712C36.8036 34.0235 36.7617 33.8631 36.7519 33.6993C36.7422 33.5354 36.7648 33.3711 36.8185 33.216C36.8722 33.0608 36.956 32.9178 37.065 32.795L41.3275 28L37.065 23.205C36.9559 23.0822 36.8722 22.9392 36.8184 22.784C36.7647 22.6289 36.7421 22.4647 36.7518 22.3008C36.7616 22.1369 36.8035 21.9765 36.8753 21.8288C36.947 21.6811 37.0472 21.549 37.17 21.44Z" fill="#ff7e35"/>
</svg>
