<?xml version="1.0" encoding="UTF-8"?>
<!DOCTYPE svg PUBLIC "-//W3C//DTD SVG 1.1//EN" "http://www.w3.org/Graphics/SVG/1.1/DTD/svg11.dtd">
<svg xmlns="http://www.w3.org/2000/svg" xmlns:xlink="http://www.w3.org/1999/xlink" version="1.1" width="40" height="144" viewBox="0 0 40 144">
  <defs>
    <path id="correct-answer" fill="#26d782" d="M20 5a15 15 0 1 1 0 30 15 15 0 0 1 0-30Zm0 2.5a12.5 12.5 0 1 0 0 25 12.5 12.5 0 0 0 0-25Zm-1.875 15.105L25.3 15.41a1.25 1.25 0 0 1 1.915 1.593l-.145.174-8.06 8.08a1.25 1.25 0 0 1-1.595.148l-.175-.145-4.375-4.375a1.25 1.25 0 0 1 1.595-1.913l.175.143 3.49 3.49Z"/>
    <path id="incorrect-answer" fill="#ee5454" d="M20 5a15 15 0 1 1 0 30 15 15 0 0 1 0-30Zm0 2.5a12.5 12.5 0 1 0 0 25 12.5 12.5 0 0 0 0-25Zm-5.402 7.415.142-.175a1.25 1.25 0 0 1 1.595-.143l.175.143L20 18.233l3.49-3.493a1.25 1.25 0 0 1 1.595-.143l.175.143a1.25 1.25 0 0 1 .142 1.595l-.142.175L21.767 20l3.493 3.49a1.25 1.25 0 0 1 .142 1.595l-.142.175a1.25 1.25 0 0 1-1.595.142l-.175-.142L20 21.767l-3.49 3.493a1.25 1.25 0 0 1-1.595.142l-.175-.142a1.25 1.25 0 0 1-.143-1.595l.143-.175L18.233 20l-3.493-3.49a1.25 1.25 0 0 1-.143-1.595Z"/>
  </defs>
  <use xlink:href="#correct-answer" transform="scale(.8)"/>
  <use xlink:href="#incorrect-answer" transform="translate(0,32) scale(.8)"/>
  <use xlink:href="#correct-answer" transform="translate(0,64)"/>
  <use xlink:href="#incorrect-answer" transform="translate(0,104)"/>
</svg>
